<svg xmlns="http://www.w3.org/2000/svg" width="150.016" height="150.016" viewBox="0 0 1024 1024">
  <defs>
    <style>
      .cls-1 {
        fill: #4680c2;
      }

      .cls-1, .cls-2 {
        fill-rule: evenodd;
      }

      .cls-2 {
        fill: #fff;
      }
    </style>
  </defs>
  <path id="icon" class="cls-1" d="M354.977,0H669C955.7,0,1023.98,68.265,1023.98,354.979V669c0,286.706-68.277,354.977-354.982,354.977H354.977C68.265,1023.98,0,955.709,0,669V354.979C0,68.265,68.265,0,354.977,0M838.636,352.77c4.747-15.815,0-27.447-22.577-27.447H741.392c-18.987,0-27.736,10.042-32.483,21.118,0,0-37.973,92.549-91.761,152.666-17.4,17.4-25.308,22.946-34.808,22.946-4.739,0-11.61-5.542-11.61-21.357V352.77c0-18.98-5.513-27.447-21.335-27.447H432.066c-11.863,0-19,8.814-19,17.166,0,18,26.9,22.151,29.672,72.775V525.21c0,24.109-4.356,28.487-13.85,28.487-25.308,0-86.884-92.968-123.4-199.345-7.16-20.677-14.334-29.029-33.415-29.029H197.408c-21.334,0-25.6,10.042-25.6,21.118,0,19.774,25.308,117.864,117.856,247.592,61.7,88.59,148.627,136.62,227.73,136.62,47.459,0,53.333-10.671,53.333-29.044V634.658c0-21.342,4.494-25.59,19.528-25.59,11.068,0,30.055,5.526,74.357,48.246,50.623,50.624,58.968,73.339,87.447,73.339H826.73c21.327,0,31.991-10.671,25.842-31.717-6.74-20.981-30.907-51.418-62.977-87.5-17.4-20.569-43.515-42.712-51.418-53.795-11.076-14.233-7.911-20.562,0-33.22,0,0,90.973-128.145,100.459-171.652"/>
  <path id="vk" class="cls-2" d="M840.227,352.569c4.765-15.8,0-27.425-22.663-27.425H742.61c-19.06,0-27.842,10.035-32.607,21.1,0,0-38.119,92.475-92.113,152.545-17.464,17.39-25.4,22.927-34.942,22.927-4.758,0-11.655-5.537-11.655-21.339V352.569c0-18.964-5.533-27.425-21.416-27.425H432.1c-11.909,0-19.074,8.808-19.074,17.153,0,17.982,27,22.133,29.786,72.717V524.873c0,24.09-4.374,28.465-13.9,28.465-25.406,0-87.218-92.895-123.872-199.188-7.187-20.66-14.388-29.006-33.542-29.006H196.539c-21.416,0-25.695,10.035-25.695,21.1,0,19.758,25.405,117.771,118.309,247.4,61.935,88.52,149.2,136.512,228.6,136.512,47.641,0,53.537-10.662,53.537-29.02v-66.9c0-21.325,4.511-25.57,19.6-25.57,11.11,0,30.17,5.523,74.641,48.209,50.818,50.584,59.195,73.28,87.784,73.28h74.953c21.409,0,32.114-10.662,25.942-31.691-6.766-20.964-31.026-51.378-63.219-87.43-17.471-20.552-43.681-42.679-51.615-53.753-11.118-14.221-7.942-20.545,0-33.193,0,0,91.322-128.044,100.844-171.517"/>
</svg>
